<svg width="40" height="40" viewBox="0 0 40 40" fill="none" xmlns="http://www.w3.org/2000/svg">
<path d="M19.998 35C22.1554 35 24.043 34.4495 24.7171 33.0734C24.9868 32.5229 24.9868 32.1101 25.1216 31.5596C25.7958 28.3945 27.2789 26.1927 28.6273 24.9541C30.5149 23.0275 31.9981 20.1376 31.9981 16.8349C31.9981 10.367 26.7396 5 19.998 5C13.2565 5 7.99805 10.367 7.99805 16.8349C7.99805 20 9.48119 23.0275 11.3688 24.9541C12.7171 26.3303 14.2003 28.3945 14.8745 31.5596C15.0093 32.2477 15.0093 32.5229 15.2789 33.0734C15.9531 34.4495 17.8407 35 19.998 35ZM25.1216 21.2385C25.1216 23.0275 23.6385 24.5413 19.998 24.5413C16.3576 24.5413 14.8745 22.8899 14.8745 21.2385V20.5505C14.8745 20.2752 15.0093 20 15.2789 20H16.7621C17.1666 20 17.1666 20.1376 17.1666 20.5505V21.1009C17.1666 22.0642 18.2452 22.6147 19.998 22.6147C21.7509 22.6147 22.8295 22.2018 22.8295 21.1009V20.4128C22.8295 19.7248 22.2902 19.4495 21.3464 19.0367L17.3014 17.5229C16.3576 17.1101 15.1441 16.1468 15.1441 14.7706V13.8073C15.1441 12.0184 16.3576 10.367 20.1329 10.367C23.7733 10.367 25.1216 12.0184 25.1216 13.8073V14.4954C25.1216 14.9083 24.9868 15.0459 24.5823 15.0459H23.0992C22.8295 15.0459 22.6947 14.9083 22.6947 14.4954V13.8073C22.6947 12.844 21.7509 12.2936 20.1329 12.2936C18.5149 12.2936 17.5711 12.7064 17.5711 13.8073V14.2202C17.5711 14.9083 18.2452 15.3211 18.6497 15.4587L22.6947 16.9725C24.1778 17.5229 25.1216 18.3486 25.1216 19.7248V21.2385Z" fill="#088475"/>
</svg>
