<svg width="75" height="16" viewBox="0 0 75 16" fill="none" xmlns="http://www.w3.org/2000/svg">
<g clip-path="url(#clip0_679_1993)">
<path d="M15.4397 2.67713C15.8133 2.67713 15.9378 2.8639 15.9378 3.17518L16 4.04678C16.6849 3.42421 18.0545 2.49036 20.2335 2.49036C21.9767 2.49036 23.0973 3.17518 23.5954 4.2958C24.2179 3.73549 25.5876 2.49036 28.0779 2.49036C30.5059 2.49036 31.8133 3.92226 31.8133 5.85222V15.253C31.8133 15.6265 31.6265 15.7511 31.3152 15.7511H29.8211C29.4475 15.7511 29.323 15.5643 29.323 15.253V6.41254C29.323 5.35417 28.8249 4.66934 27.393 4.66934C25.6498 4.66934 24.467 5.6032 23.9689 6.03899C23.9689 6.16351 23.9689 6.28802 23.9689 6.41254V15.1907C23.9689 15.5643 23.8444 15.6888 23.4709 15.6888H21.9144C21.5409 15.6888 21.4164 15.502 21.4164 15.1907V6.41254C21.4164 5.35417 20.9183 4.66934 19.4864 4.66934C17.8055 4.66934 16.5604 5.54094 16.0623 6.03899V15.1907C16.0623 15.5643 15.9378 15.6888 15.5642 15.6888H14.0078C13.6343 15.6888 13.5098 15.502 13.5098 15.1907V3.17518C13.5098 2.8639 13.6343 2.67713 14.0078 2.67713H15.4397Z" fill="#088475"/>
<path d="M35.1128 5.97669C35.1128 3.85996 36.4825 2.42805 40.0933 2.42805C43.8288 2.42805 45.0739 3.85996 45.0739 5.97669V15.1907C45.0739 15.5642 44.9494 15.751 44.5758 15.751H43.2062C42.8326 15.751 42.7081 15.5642 42.7081 15.1907L42.6459 14.4436C41.8988 15.0662 40.4669 15.9378 38.4747 15.9378C36.0467 15.9378 34.7393 14.4436 34.7393 12.7627V11.5175C34.7393 9.77436 35.9844 8.34245 38.4124 8.34245H42.5836V6.28798C42.5836 5.22961 42.0233 4.48253 40.0311 4.48253C38.0389 4.48253 37.4163 5.1051 37.4163 6.22572V6.41249C37.4163 6.78603 37.2918 6.91054 36.9182 6.91054H35.5486C35.2373 6.91054 35.0505 6.72377 35.0505 6.41249V5.97669H35.1128ZM42.5836 12.5137V10.2724H38.9727C37.6653 10.2724 37.2295 10.8327 37.2295 11.8911V12.3891C37.2295 13.4475 37.7898 13.8833 39.0972 13.8833C40.7159 13.8833 42.0233 13.0117 42.5836 12.5137Z" fill="#088475"/>
<path d="M55.7201 2.92611V4.10899C55.7201 4.48253 55.5333 4.60704 55.222 4.60704C53.2298 4.73156 51.7356 5.78992 51.1131 6.28798V15.1284C51.1131 15.502 50.9886 15.6265 50.615 15.6265H49.0586C48.6851 15.6265 48.5605 15.4397 48.5605 15.1284V3.17514C48.5605 2.86385 48.6851 2.67708 49.0586 2.67708H50.4283C50.8018 2.67708 50.9263 2.86385 50.9263 3.17514L50.9886 4.29576C51.6734 3.61093 53.1675 2.42805 55.0975 2.42805C55.5333 2.42805 55.7201 2.61483 55.7201 2.92611Z" fill="#088475"/>
<path d="M74.1478 2.92611V4.10899C74.1478 4.48253 73.961 4.60704 73.6498 4.60704C71.6575 4.73156 70.1634 5.78992 69.5408 6.28798V15.1284C69.5408 15.502 69.4163 15.6265 69.0428 15.6265H67.4863C67.1128 15.6265 66.9883 15.4397 66.9883 15.1284V3.17514C66.9883 2.86385 67.1128 2.67708 67.4863 2.67708H68.856C69.2295 2.67708 69.354 2.86385 69.354 3.17514L69.4163 4.29576C70.1011 3.61093 71.5953 2.42805 73.5252 2.42805C73.961 2.42805 74.1478 2.61483 74.1478 2.92611Z" fill="#088475"/>
<path d="M64.4359 14.3812V15.4395C64.4359 15.8131 64.2491 15.9999 63.8756 15.9999H63.004C61.1985 15.9999 59.9534 15.6886 59.2686 15.0037C58.5837 14.3812 58.2725 13.4473 58.2725 11.9532V3.23721V0.684685C58.2725 0.311144 58.4592 0.18663 58.7705 0.18663H60.3269C60.6382 0.18663 60.825 0.373401 60.825 0.684685V2.42788H63.502C63.8756 2.42788 64.0623 2.61465 64.0623 2.92593V3.9843C64.0623 4.35784 63.8756 4.54461 63.502 4.54461H60.8872V12.2022C60.8872 13.3228 61.6966 13.8831 63.4398 13.8831H63.9378C64.2491 13.8209 64.4359 14.0076 64.4359 14.3812Z" fill="#088475"/>
<path d="M10.4591 10.4591V12.3268C10.4591 13.4475 9.96109 16 5.22957 16C0.498054 16 0 13.4475 0 12.3268V12.0156C0 11.5798 0.249027 11.3307 0.684825 11.3307H1.99222C2.3035 11.3307 2.61479 11.4553 2.61479 12.0156C2.61479 12.4514 2.61479 13.6965 5.22957 13.6965C7.84436 13.6965 7.84436 12.4514 7.84436 12.0156V10.9572C7.84436 10.0856 7.15953 9.77432 6.16342 9.33852L2.36576 7.90661C1.30739 7.47082 0.249027 6.41245 0.249027 4.91829V3.67315C0.249027 2.3035 0.871595 0 5.22957 0C6.97276 0 8.28016 0.373541 9.15175 1.05837C9.89883 1.68093 10.2724 2.55253 10.2724 3.61089V3.85992C10.2724 4.29572 10.0233 4.54475 9.64981 4.54475H8.34241C7.71984 4.54475 7.71984 4.04669 7.71984 3.85992C7.71984 3.11284 7.47082 2.17899 5.29183 2.17899C3.11284 2.17899 2.86381 3.05058 2.86381 3.85992V4.29572C2.86381 5.10506 3.29961 5.35409 3.85992 5.54086L7.90661 7.09728C9.58755 7.90661 10.4591 8.96498 10.4591 10.4591Z" fill="#088475"/>
</g>
<defs>
<clipPath id="clip0_679_1993">
<rect width="74.1478" height="16" fill="white"/>
</clipPath>
</defs>
</svg>
